<mxfile host="app.diagrams.net" agent="Mozilla/5.0 (Windows NT 10.0; Win64; x64) AppleWebKit/537.36 (KHTML, like Gecko) Chrome/134.0.0.0 Safari/537.36" version="26.1.3">
  <diagram name="use case diagram" id="iLCSm9UdMvgEppOqTavG">
    <mxGraphModel dx="2200" dy="1143" grid="1" gridSize="10" guides="1" tooltips="1" connect="1" arrows="1" fold="1" page="1" pageScale="1" pageWidth="850" pageHeight="1100" math="0" shadow="0">
      <root>
        <mxCell id="0" />
        <mxCell id="1" parent="0" />
        <mxCell id="xBMxwYsTDwBjrob1wYaQ-2" value="" style="shape=folder;fontStyle=1;spacingTop=10;tabWidth=194;tabHeight=22;tabPosition=left;html=1;rounded=0;shadow=0;comic=0;labelBackgroundColor=none;strokeWidth=1;fillColor=none;fontFamily=Verdana;fontSize=10;align=center;" vertex="1" parent="1">
          <mxGeometry x="350" y="100" width="770" height="780" as="geometry" />
        </mxCell>
        <mxCell id="xBMxwYsTDwBjrob1wYaQ-3" value="&lt;b&gt;&lt;font style=&quot;font-size: 18px;&quot;&gt;AIcruter&lt;/font&gt;&lt;/b&gt;" style="text;html=1;align=center;verticalAlign=middle;whiteSpace=wrap;rounded=0;" vertex="1" parent="1">
          <mxGeometry x="370" y="90" width="150" height="40" as="geometry" />
        </mxCell>
        <mxCell id="xBMxwYsTDwBjrob1wYaQ-47" style="edgeStyle=orthogonalEdgeStyle;rounded=0;orthogonalLoop=1;jettySize=auto;html=1;entryX=0;entryY=0.5;entryDx=0;entryDy=0;curved=1;" edge="1" parent="1" source="xBMxwYsTDwBjrob1wYaQ-4" target="xBMxwYsTDwBjrob1wYaQ-11">
          <mxGeometry relative="1" as="geometry">
            <Array as="points">
              <mxPoint x="330" y="410" />
              <mxPoint x="330" y="160" />
            </Array>
          </mxGeometry>
        </mxCell>
        <mxCell id="xBMxwYsTDwBjrob1wYaQ-84" style="edgeStyle=orthogonalEdgeStyle;rounded=0;orthogonalLoop=1;jettySize=auto;html=1;entryX=0;entryY=0.5;entryDx=0;entryDy=0;curved=1;" edge="1" parent="1" source="xBMxwYsTDwBjrob1wYaQ-4" target="xBMxwYsTDwBjrob1wYaQ-9">
          <mxGeometry relative="1" as="geometry">
            <Array as="points">
              <mxPoint x="340" y="410" />
              <mxPoint x="340" y="280" />
            </Array>
          </mxGeometry>
        </mxCell>
        <mxCell id="xBMxwYsTDwBjrob1wYaQ-85" style="edgeStyle=orthogonalEdgeStyle;rounded=0;orthogonalLoop=1;jettySize=auto;html=1;entryX=0;entryY=0.5;entryDx=0;entryDy=0;curved=1;" edge="1" parent="1" source="xBMxwYsTDwBjrob1wYaQ-4" target="xBMxwYsTDwBjrob1wYaQ-16">
          <mxGeometry relative="1" as="geometry">
            <Array as="points">
              <mxPoint x="340" y="410" />
              <mxPoint x="340" y="350" />
            </Array>
          </mxGeometry>
        </mxCell>
        <mxCell id="xBMxwYsTDwBjrob1wYaQ-86" style="edgeStyle=orthogonalEdgeStyle;rounded=0;orthogonalLoop=1;jettySize=auto;html=1;entryX=0;entryY=0.5;entryDx=0;entryDy=0;curved=1;" edge="1" parent="1" source="xBMxwYsTDwBjrob1wYaQ-4" target="xBMxwYsTDwBjrob1wYaQ-18">
          <mxGeometry relative="1" as="geometry">
            <Array as="points">
              <mxPoint x="340" y="410" />
              <mxPoint x="340" y="400" />
            </Array>
          </mxGeometry>
        </mxCell>
        <mxCell id="xBMxwYsTDwBjrob1wYaQ-87" style="edgeStyle=orthogonalEdgeStyle;rounded=0;orthogonalLoop=1;jettySize=auto;html=1;curved=1;" edge="1" parent="1" source="xBMxwYsTDwBjrob1wYaQ-4" target="xBMxwYsTDwBjrob1wYaQ-19">
          <mxGeometry relative="1" as="geometry" />
        </mxCell>
        <mxCell id="xBMxwYsTDwBjrob1wYaQ-88" style="edgeStyle=orthogonalEdgeStyle;rounded=0;orthogonalLoop=1;jettySize=auto;html=1;entryX=0;entryY=0.5;entryDx=0;entryDy=0;curved=1;" edge="1" parent="1" source="xBMxwYsTDwBjrob1wYaQ-4" target="xBMxwYsTDwBjrob1wYaQ-20">
          <mxGeometry relative="1" as="geometry" />
        </mxCell>
        <mxCell id="xBMxwYsTDwBjrob1wYaQ-89" style="edgeStyle=orthogonalEdgeStyle;rounded=0;orthogonalLoop=1;jettySize=auto;html=1;entryX=0;entryY=0.5;entryDx=0;entryDy=0;curved=1;" edge="1" parent="1" source="xBMxwYsTDwBjrob1wYaQ-4" target="xBMxwYsTDwBjrob1wYaQ-31">
          <mxGeometry relative="1" as="geometry">
            <Array as="points">
              <mxPoint x="340" y="410" />
              <mxPoint x="340" y="680" />
            </Array>
          </mxGeometry>
        </mxCell>
        <mxCell id="xBMxwYsTDwBjrob1wYaQ-90" style="edgeStyle=orthogonalEdgeStyle;rounded=0;orthogonalLoop=1;jettySize=auto;html=1;entryX=0;entryY=0.5;entryDx=0;entryDy=0;curved=1;" edge="1" parent="1" source="xBMxwYsTDwBjrob1wYaQ-4" target="xBMxwYsTDwBjrob1wYaQ-25">
          <mxGeometry relative="1" as="geometry">
            <Array as="points">
              <mxPoint x="350" y="410" />
              <mxPoint x="350" y="640" />
            </Array>
          </mxGeometry>
        </mxCell>
        <mxCell id="xBMxwYsTDwBjrob1wYaQ-92" style="edgeStyle=orthogonalEdgeStyle;rounded=0;orthogonalLoop=1;jettySize=auto;html=1;entryX=0;entryY=0.5;entryDx=0;entryDy=0;curved=1;" edge="1" parent="1" source="xBMxwYsTDwBjrob1wYaQ-4" target="xBMxwYsTDwBjrob1wYaQ-34">
          <mxGeometry relative="1" as="geometry">
            <Array as="points">
              <mxPoint x="330" y="410" />
              <mxPoint x="330" y="730" />
            </Array>
          </mxGeometry>
        </mxCell>
        <mxCell id="xBMxwYsTDwBjrob1wYaQ-93" style="edgeStyle=orthogonalEdgeStyle;rounded=0;orthogonalLoop=1;jettySize=auto;html=1;entryX=0;entryY=0.5;entryDx=0;entryDy=0;curved=1;" edge="1" parent="1" source="xBMxwYsTDwBjrob1wYaQ-4" target="xBMxwYsTDwBjrob1wYaQ-43">
          <mxGeometry relative="1" as="geometry">
            <Array as="points">
              <mxPoint x="320" y="410" />
              <mxPoint x="320" y="780" />
            </Array>
          </mxGeometry>
        </mxCell>
        <mxCell id="xBMxwYsTDwBjrob1wYaQ-94" style="edgeStyle=orthogonalEdgeStyle;rounded=0;orthogonalLoop=1;jettySize=auto;html=1;entryX=0;entryY=0.5;entryDx=0;entryDy=0;curved=1;" edge="1" parent="1" source="xBMxwYsTDwBjrob1wYaQ-4" target="xBMxwYsTDwBjrob1wYaQ-30">
          <mxGeometry relative="1" as="geometry">
            <Array as="points">
              <mxPoint x="310" y="410" />
              <mxPoint x="310" y="840" />
            </Array>
          </mxGeometry>
        </mxCell>
        <mxCell id="xBMxwYsTDwBjrob1wYaQ-4" value="Employer" style="shape=umlActor;verticalLabelPosition=bottom;verticalAlign=top;html=1;" vertex="1" parent="1">
          <mxGeometry x="270" y="380" width="30" height="60" as="geometry" />
        </mxCell>
        <mxCell id="xBMxwYsTDwBjrob1wYaQ-97" style="edgeStyle=orthogonalEdgeStyle;rounded=0;orthogonalLoop=1;jettySize=auto;html=1;entryX=1;entryY=0.5;entryDx=0;entryDy=0;curved=1;" edge="1" parent="1" source="xBMxwYsTDwBjrob1wYaQ-7" target="xBMxwYsTDwBjrob1wYaQ-11">
          <mxGeometry relative="1" as="geometry">
            <Array as="points">
              <mxPoint x="1190" y="400" />
              <mxPoint x="1190" y="160" />
            </Array>
          </mxGeometry>
        </mxCell>
        <mxCell id="xBMxwYsTDwBjrob1wYaQ-98" style="edgeStyle=orthogonalEdgeStyle;rounded=0;orthogonalLoop=1;jettySize=auto;html=1;entryX=1;entryY=0.5;entryDx=0;entryDy=0;curved=1;" edge="1" parent="1" source="xBMxwYsTDwBjrob1wYaQ-7" target="xBMxwYsTDwBjrob1wYaQ-9">
          <mxGeometry relative="1" as="geometry">
            <Array as="points">
              <mxPoint x="1190" y="400" />
              <mxPoint x="1190" y="280" />
            </Array>
          </mxGeometry>
        </mxCell>
        <mxCell id="xBMxwYsTDwBjrob1wYaQ-99" style="edgeStyle=orthogonalEdgeStyle;rounded=0;orthogonalLoop=1;jettySize=auto;html=1;curved=1;" edge="1" parent="1" source="xBMxwYsTDwBjrob1wYaQ-7" target="xBMxwYsTDwBjrob1wYaQ-37">
          <mxGeometry relative="1" as="geometry">
            <Array as="points">
              <mxPoint x="1190" y="400" />
              <mxPoint x="1190" y="360" />
            </Array>
          </mxGeometry>
        </mxCell>
        <mxCell id="xBMxwYsTDwBjrob1wYaQ-100" style="edgeStyle=orthogonalEdgeStyle;rounded=0;orthogonalLoop=1;jettySize=auto;html=1;curved=1;" edge="1" parent="1" source="xBMxwYsTDwBjrob1wYaQ-7" target="xBMxwYsTDwBjrob1wYaQ-36">
          <mxGeometry relative="1" as="geometry">
            <Array as="points">
              <mxPoint x="1120" y="400" />
              <mxPoint x="1120" y="430" />
            </Array>
          </mxGeometry>
        </mxCell>
        <mxCell id="xBMxwYsTDwBjrob1wYaQ-101" style="edgeStyle=orthogonalEdgeStyle;rounded=0;orthogonalLoop=1;jettySize=auto;html=1;entryX=1;entryY=0.5;entryDx=0;entryDy=0;curved=1;" edge="1" parent="1" source="xBMxwYsTDwBjrob1wYaQ-7" target="xBMxwYsTDwBjrob1wYaQ-38">
          <mxGeometry relative="1" as="geometry">
            <Array as="points">
              <mxPoint x="1110" y="400" />
              <mxPoint x="1110" y="490" />
            </Array>
          </mxGeometry>
        </mxCell>
        <mxCell id="xBMxwYsTDwBjrob1wYaQ-103" style="edgeStyle=orthogonalEdgeStyle;rounded=0;orthogonalLoop=1;jettySize=auto;html=1;entryX=1;entryY=0.5;entryDx=0;entryDy=0;curved=1;" edge="1" parent="1" source="xBMxwYsTDwBjrob1wYaQ-7" target="xBMxwYsTDwBjrob1wYaQ-42">
          <mxGeometry relative="1" as="geometry">
            <Array as="points">
              <mxPoint x="1110" y="400" />
              <mxPoint x="1110" y="550" />
            </Array>
          </mxGeometry>
        </mxCell>
        <mxCell id="xBMxwYsTDwBjrob1wYaQ-104" style="edgeStyle=orthogonalEdgeStyle;rounded=0;orthogonalLoop=1;jettySize=auto;html=1;entryX=1;entryY=0.5;entryDx=0;entryDy=0;curved=1;" edge="1" parent="1" source="xBMxwYsTDwBjrob1wYaQ-7" target="xBMxwYsTDwBjrob1wYaQ-40">
          <mxGeometry relative="1" as="geometry">
            <Array as="points">
              <mxPoint x="1120" y="400" />
              <mxPoint x="1120" y="620" />
            </Array>
          </mxGeometry>
        </mxCell>
        <mxCell id="xBMxwYsTDwBjrob1wYaQ-105" style="edgeStyle=orthogonalEdgeStyle;rounded=0;orthogonalLoop=1;jettySize=auto;html=1;entryX=1;entryY=0.5;entryDx=0;entryDy=0;curved=1;" edge="1" parent="1" source="xBMxwYsTDwBjrob1wYaQ-7" target="xBMxwYsTDwBjrob1wYaQ-41">
          <mxGeometry relative="1" as="geometry">
            <Array as="points">
              <mxPoint x="1130" y="400" />
              <mxPoint x="1130" y="670" />
            </Array>
          </mxGeometry>
        </mxCell>
        <mxCell id="xBMxwYsTDwBjrob1wYaQ-106" style="edgeStyle=orthogonalEdgeStyle;rounded=0;orthogonalLoop=1;jettySize=auto;html=1;entryX=1;entryY=0.5;entryDx=0;entryDy=0;curved=1;" edge="1" parent="1" source="xBMxwYsTDwBjrob1wYaQ-7" target="xBMxwYsTDwBjrob1wYaQ-44">
          <mxGeometry relative="1" as="geometry">
            <Array as="points">
              <mxPoint x="1140" y="400" />
              <mxPoint x="1140" y="730" />
            </Array>
          </mxGeometry>
        </mxCell>
        <mxCell id="xBMxwYsTDwBjrob1wYaQ-107" style="edgeStyle=orthogonalEdgeStyle;rounded=0;orthogonalLoop=1;jettySize=auto;html=1;entryX=1;entryY=0.5;entryDx=0;entryDy=0;curved=1;" edge="1" parent="1" source="xBMxwYsTDwBjrob1wYaQ-7" target="xBMxwYsTDwBjrob1wYaQ-39">
          <mxGeometry relative="1" as="geometry" />
        </mxCell>
        <mxCell id="xBMxwYsTDwBjrob1wYaQ-7" value="Employee" style="shape=umlActor;verticalLabelPosition=bottom;verticalAlign=top;html=1;" vertex="1" parent="1">
          <mxGeometry x="1245" y="370" width="30" height="60" as="geometry" />
        </mxCell>
        <mxCell id="xBMxwYsTDwBjrob1wYaQ-95" style="edgeStyle=orthogonalEdgeStyle;rounded=0;orthogonalLoop=1;jettySize=auto;html=1;entryX=0.5;entryY=1;entryDx=0;entryDy=0;curved=1;" edge="1" parent="1" source="xBMxwYsTDwBjrob1wYaQ-8" target="xBMxwYsTDwBjrob1wYaQ-30">
          <mxGeometry relative="1" as="geometry" />
        </mxCell>
        <mxCell id="xBMxwYsTDwBjrob1wYaQ-96" style="edgeStyle=orthogonalEdgeStyle;rounded=0;orthogonalLoop=1;jettySize=auto;html=1;curved=1;" edge="1" parent="1" source="xBMxwYsTDwBjrob1wYaQ-8" target="xBMxwYsTDwBjrob1wYaQ-39">
          <mxGeometry relative="1" as="geometry" />
        </mxCell>
        <mxCell id="xBMxwYsTDwBjrob1wYaQ-8" value="AI System" style="shape=umlActor;verticalLabelPosition=bottom;verticalAlign=top;html=1;" vertex="1" parent="1">
          <mxGeometry x="720" y="900" width="30" height="60" as="geometry" />
        </mxCell>
        <mxCell id="xBMxwYsTDwBjrob1wYaQ-9" value="Login" style="ellipse;whiteSpace=wrap;html=1;" vertex="1" parent="1">
          <mxGeometry x="650" y="260" width="140" height="40" as="geometry" />
        </mxCell>
        <mxCell id="xBMxwYsTDwBjrob1wYaQ-14" style="edgeStyle=orthogonalEdgeStyle;rounded=0;orthogonalLoop=1;jettySize=auto;html=1;exitX=1;exitY=1;exitDx=0;exitDy=0;entryX=0.5;entryY=0;entryDx=0;entryDy=0;dashed=1;" edge="1" parent="1" source="xBMxwYsTDwBjrob1wYaQ-10" target="xBMxwYsTDwBjrob1wYaQ-9">
          <mxGeometry relative="1" as="geometry">
            <Array as="points">
              <mxPoint x="650" y="240" />
              <mxPoint x="720" y="240" />
            </Array>
          </mxGeometry>
        </mxCell>
        <mxCell id="xBMxwYsTDwBjrob1wYaQ-15" value="&amp;lt;&amp;lt;extends&amp;gt;&amp;gt;" style="edgeLabel;html=1;align=center;verticalAlign=middle;resizable=0;points=[];" vertex="1" connectable="0" parent="xBMxwYsTDwBjrob1wYaQ-14">
          <mxGeometry x="-0.5583" relative="1" as="geometry">
            <mxPoint as="offset" />
          </mxGeometry>
        </mxCell>
        <mxCell id="xBMxwYsTDwBjrob1wYaQ-10" value="Invalid credentials" style="ellipse;whiteSpace=wrap;html=1;" vertex="1" parent="1">
          <mxGeometry x="530" y="200" width="140" height="40" as="geometry" />
        </mxCell>
        <mxCell id="xBMxwYsTDwBjrob1wYaQ-11" value="Register" style="ellipse;whiteSpace=wrap;html=1;" vertex="1" parent="1">
          <mxGeometry x="660" y="140" width="140" height="40" as="geometry" />
        </mxCell>
        <mxCell id="xBMxwYsTDwBjrob1wYaQ-12" value="" style="endArrow=classic;dashed=1;html=1;dashPattern=1 3;strokeWidth=2;rounded=0;exitX=1;exitY=0;exitDx=0;exitDy=0;entryX=0.5;entryY=1;entryDx=0;entryDy=0;startArrow=none;startFill=0;endFill=1;" edge="1" parent="1" source="xBMxwYsTDwBjrob1wYaQ-10" target="xBMxwYsTDwBjrob1wYaQ-11">
          <mxGeometry width="50" height="50" relative="1" as="geometry">
            <mxPoint x="700" y="310" as="sourcePoint" />
            <mxPoint x="750" y="260" as="targetPoint" />
            <Array as="points">
              <mxPoint x="730" y="206" />
            </Array>
          </mxGeometry>
        </mxCell>
        <mxCell id="xBMxwYsTDwBjrob1wYaQ-13" value="&amp;lt;&amp;lt;extends&amp;gt;&amp;gt;" style="edgeLabel;html=1;align=center;verticalAlign=middle;resizable=0;points=[];" vertex="1" connectable="0" parent="xBMxwYsTDwBjrob1wYaQ-12">
          <mxGeometry x="-0.5033" y="1" relative="1" as="geometry">
            <mxPoint as="offset" />
          </mxGeometry>
        </mxCell>
        <mxCell id="xBMxwYsTDwBjrob1wYaQ-59" style="edgeStyle=orthogonalEdgeStyle;rounded=0;orthogonalLoop=1;jettySize=auto;html=1;dashed=1;endArrow=none;startFill=0;" edge="1" parent="1" source="xBMxwYsTDwBjrob1wYaQ-16">
          <mxGeometry relative="1" as="geometry">
            <mxPoint x="720" y="350" as="targetPoint" />
          </mxGeometry>
        </mxCell>
        <mxCell id="xBMxwYsTDwBjrob1wYaQ-67" value="&amp;lt;&amp;lt;include&amp;gt;&amp;gt;" style="edgeLabel;html=1;align=center;verticalAlign=middle;resizable=0;points=[];" vertex="1" connectable="0" parent="xBMxwYsTDwBjrob1wYaQ-59">
          <mxGeometry x="-0.2773" y="1" relative="1" as="geometry">
            <mxPoint as="offset" />
          </mxGeometry>
        </mxCell>
        <mxCell id="xBMxwYsTDwBjrob1wYaQ-16" value="Post a job listing" style="ellipse;whiteSpace=wrap;html=1;" vertex="1" parent="1">
          <mxGeometry x="420" y="330" width="140" height="40" as="geometry" />
        </mxCell>
        <mxCell id="xBMxwYsTDwBjrob1wYaQ-58" style="edgeStyle=orthogonalEdgeStyle;rounded=0;orthogonalLoop=1;jettySize=auto;html=1;dashed=1;endArrow=none;startFill=0;" edge="1" parent="1" source="xBMxwYsTDwBjrob1wYaQ-18">
          <mxGeometry relative="1" as="geometry">
            <mxPoint x="720" y="400" as="targetPoint" />
          </mxGeometry>
        </mxCell>
        <mxCell id="xBMxwYsTDwBjrob1wYaQ-66" value="&amp;lt;&amp;lt;include&amp;gt;&amp;gt;" style="edgeLabel;html=1;align=center;verticalAlign=middle;resizable=0;points=[];" vertex="1" connectable="0" parent="xBMxwYsTDwBjrob1wYaQ-58">
          <mxGeometry x="-0.19" y="-3" relative="1" as="geometry">
            <mxPoint as="offset" />
          </mxGeometry>
        </mxCell>
        <mxCell id="xBMxwYsTDwBjrob1wYaQ-18" value="Edit status of a job listing" style="ellipse;whiteSpace=wrap;html=1;" vertex="1" parent="1">
          <mxGeometry x="420" y="380" width="140" height="40" as="geometry" />
        </mxCell>
        <mxCell id="xBMxwYsTDwBjrob1wYaQ-57" style="edgeStyle=orthogonalEdgeStyle;rounded=0;orthogonalLoop=1;jettySize=auto;html=1;dashed=1;endArrow=none;startFill=0;" edge="1" parent="1" source="xBMxwYsTDwBjrob1wYaQ-19">
          <mxGeometry relative="1" as="geometry">
            <mxPoint x="720" y="455" as="targetPoint" />
          </mxGeometry>
        </mxCell>
        <mxCell id="xBMxwYsTDwBjrob1wYaQ-65" value="&amp;lt;&amp;lt;include&amp;gt;&amp;gt;" style="edgeLabel;html=1;align=center;verticalAlign=middle;resizable=0;points=[];" vertex="1" connectable="0" parent="xBMxwYsTDwBjrob1wYaQ-57">
          <mxGeometry x="-0.3146" y="2" relative="1" as="geometry">
            <mxPoint as="offset" />
          </mxGeometry>
        </mxCell>
        <mxCell id="xBMxwYsTDwBjrob1wYaQ-19" value="Delete job listings" style="ellipse;whiteSpace=wrap;html=1;" vertex="1" parent="1">
          <mxGeometry x="420" y="435" width="140" height="40" as="geometry" />
        </mxCell>
        <mxCell id="xBMxwYsTDwBjrob1wYaQ-56" style="edgeStyle=orthogonalEdgeStyle;rounded=0;orthogonalLoop=1;jettySize=auto;html=1;endArrow=none;startFill=0;dashed=1;" edge="1" parent="1" source="xBMxwYsTDwBjrob1wYaQ-20">
          <mxGeometry relative="1" as="geometry">
            <mxPoint x="720" y="510" as="targetPoint" />
          </mxGeometry>
        </mxCell>
        <mxCell id="xBMxwYsTDwBjrob1wYaQ-64" value="&amp;lt;include&amp;gt;&amp;gt;" style="edgeLabel;html=1;align=center;verticalAlign=middle;resizable=0;points=[];" vertex="1" connectable="0" parent="xBMxwYsTDwBjrob1wYaQ-56">
          <mxGeometry x="-0.19" y="2" relative="1" as="geometry">
            <mxPoint as="offset" />
          </mxGeometry>
        </mxCell>
        <mxCell id="xBMxwYsTDwBjrob1wYaQ-20" value="View company&#39;s job listings" style="ellipse;whiteSpace=wrap;html=1;" vertex="1" parent="1">
          <mxGeometry x="420" y="490" width="140" height="40" as="geometry" />
        </mxCell>
        <mxCell id="xBMxwYsTDwBjrob1wYaQ-23" style="edgeStyle=orthogonalEdgeStyle;rounded=0;orthogonalLoop=1;jettySize=auto;html=1;entryX=0.5;entryY=1;entryDx=0;entryDy=0;dashed=1;" edge="1" parent="1" source="xBMxwYsTDwBjrob1wYaQ-21" target="xBMxwYsTDwBjrob1wYaQ-20">
          <mxGeometry relative="1" as="geometry">
            <Array as="points">
              <mxPoint x="490" y="570" />
            </Array>
          </mxGeometry>
        </mxCell>
        <mxCell id="xBMxwYsTDwBjrob1wYaQ-24" value="&amp;lt;&amp;lt;include&amp;gt;&amp;gt;" style="edgeLabel;html=1;align=center;verticalAlign=middle;resizable=0;points=[];" vertex="1" connectable="0" parent="xBMxwYsTDwBjrob1wYaQ-23">
          <mxGeometry x="0.3292" relative="1" as="geometry">
            <mxPoint as="offset" />
          </mxGeometry>
        </mxCell>
        <mxCell id="xBMxwYsTDwBjrob1wYaQ-55" style="edgeStyle=orthogonalEdgeStyle;rounded=0;orthogonalLoop=1;jettySize=auto;html=1;endArrow=none;startFill=0;dashed=1;" edge="1" parent="1" source="xBMxwYsTDwBjrob1wYaQ-21">
          <mxGeometry relative="1" as="geometry">
            <mxPoint x="720" y="570" as="targetPoint" />
          </mxGeometry>
        </mxCell>
        <mxCell id="xBMxwYsTDwBjrob1wYaQ-63" value="&amp;lt;&amp;lt;include&amp;gt;&amp;gt;" style="edgeLabel;html=1;align=center;verticalAlign=middle;resizable=0;points=[];" vertex="1" connectable="0" parent="xBMxwYsTDwBjrob1wYaQ-55">
          <mxGeometry x="-0.0922" y="3" relative="1" as="geometry">
            <mxPoint as="offset" />
          </mxGeometry>
        </mxCell>
        <mxCell id="xBMxwYsTDwBjrob1wYaQ-21" value="See canditates that applied" style="ellipse;whiteSpace=wrap;html=1;" vertex="1" parent="1">
          <mxGeometry x="510" y="550" width="140" height="40" as="geometry" />
        </mxCell>
        <mxCell id="xBMxwYsTDwBjrob1wYaQ-26" style="edgeStyle=orthogonalEdgeStyle;rounded=0;orthogonalLoop=1;jettySize=auto;html=1;entryX=0.5;entryY=1;entryDx=0;entryDy=0;dashed=1;" edge="1" parent="1" source="xBMxwYsTDwBjrob1wYaQ-25" target="xBMxwYsTDwBjrob1wYaQ-21">
          <mxGeometry relative="1" as="geometry" />
        </mxCell>
        <mxCell id="xBMxwYsTDwBjrob1wYaQ-27" value="&amp;lt;&amp;lt;include&amp;gt;&amp;gt;" style="edgeLabel;html=1;align=center;verticalAlign=middle;resizable=0;points=[];" vertex="1" connectable="0" parent="xBMxwYsTDwBjrob1wYaQ-26">
          <mxGeometry x="-0.5733" y="1" relative="1" as="geometry">
            <mxPoint as="offset" />
          </mxGeometry>
        </mxCell>
        <mxCell id="xBMxwYsTDwBjrob1wYaQ-54" style="edgeStyle=orthogonalEdgeStyle;rounded=0;orthogonalLoop=1;jettySize=auto;html=1;endArrow=none;startFill=0;dashed=1;" edge="1" parent="1" source="xBMxwYsTDwBjrob1wYaQ-25">
          <mxGeometry relative="1" as="geometry">
            <mxPoint x="720" y="640" as="targetPoint" />
          </mxGeometry>
        </mxCell>
        <mxCell id="xBMxwYsTDwBjrob1wYaQ-62" value="&amp;lt;&amp;lt;include&amp;gt;&amp;gt;" style="edgeLabel;html=1;align=center;verticalAlign=middle;resizable=0;points=[];" vertex="1" connectable="0" parent="xBMxwYsTDwBjrob1wYaQ-54">
          <mxGeometry x="-0.4456" relative="1" as="geometry">
            <mxPoint x="22" as="offset" />
          </mxGeometry>
        </mxCell>
        <mxCell id="xBMxwYsTDwBjrob1wYaQ-25" value="Review job applications" style="ellipse;whiteSpace=wrap;html=1;" vertex="1" parent="1">
          <mxGeometry x="480" y="620" width="140" height="40" as="geometry" />
        </mxCell>
        <mxCell id="xBMxwYsTDwBjrob1wYaQ-48" style="edgeStyle=orthogonalEdgeStyle;rounded=0;orthogonalLoop=1;jettySize=auto;html=1;entryX=0.5;entryY=1;entryDx=0;entryDy=0;dashed=1;" edge="1" parent="1" source="xBMxwYsTDwBjrob1wYaQ-30" target="xBMxwYsTDwBjrob1wYaQ-9">
          <mxGeometry relative="1" as="geometry" />
        </mxCell>
        <mxCell id="xBMxwYsTDwBjrob1wYaQ-49" value="&amp;lt;&amp;lt;include&amp;gt;&amp;gt;" style="edgeLabel;html=1;align=center;verticalAlign=middle;resizable=0;points=[];" vertex="1" connectable="0" parent="xBMxwYsTDwBjrob1wYaQ-48">
          <mxGeometry x="-0.8637" y="-3" relative="1" as="geometry">
            <mxPoint as="offset" />
          </mxGeometry>
        </mxCell>
        <mxCell id="xBMxwYsTDwBjrob1wYaQ-30" value="View potential canditates for a job from Resume Matching" style="ellipse;whiteSpace=wrap;html=1;" vertex="1" parent="1">
          <mxGeometry x="402.5" y="810" width="175" height="60" as="geometry" />
        </mxCell>
        <mxCell id="xBMxwYsTDwBjrob1wYaQ-53" style="edgeStyle=orthogonalEdgeStyle;rounded=0;orthogonalLoop=1;jettySize=auto;html=1;endArrow=none;startFill=0;dashed=1;" edge="1" parent="1" source="xBMxwYsTDwBjrob1wYaQ-31">
          <mxGeometry relative="1" as="geometry">
            <mxPoint x="720" y="680" as="targetPoint" />
          </mxGeometry>
        </mxCell>
        <mxCell id="xBMxwYsTDwBjrob1wYaQ-61" value="&amp;lt;&amp;lt;include&amp;gt;&amp;gt;" style="edgeLabel;html=1;align=center;verticalAlign=middle;resizable=0;points=[];" vertex="1" connectable="0" parent="xBMxwYsTDwBjrob1wYaQ-53">
          <mxGeometry x="-0.3955" y="-3" relative="1" as="geometry">
            <mxPoint as="offset" />
          </mxGeometry>
        </mxCell>
        <mxCell id="xBMxwYsTDwBjrob1wYaQ-31" value="Create &amp;amp; manage company profile" style="ellipse;whiteSpace=wrap;html=1;" vertex="1" parent="1">
          <mxGeometry x="425" y="660" width="140" height="40" as="geometry" />
        </mxCell>
        <mxCell id="xBMxwYsTDwBjrob1wYaQ-52" style="edgeStyle=orthogonalEdgeStyle;rounded=0;orthogonalLoop=1;jettySize=auto;html=1;endArrow=none;startFill=0;dashed=1;" edge="1" parent="1" source="xBMxwYsTDwBjrob1wYaQ-34">
          <mxGeometry relative="1" as="geometry">
            <mxPoint x="720" y="730" as="targetPoint" />
          </mxGeometry>
        </mxCell>
        <mxCell id="xBMxwYsTDwBjrob1wYaQ-60" value="&amp;lt;&amp;lt;include&amp;gt;&amp;gt;" style="edgeLabel;html=1;align=center;verticalAlign=middle;resizable=0;points=[];" vertex="1" connectable="0" parent="xBMxwYsTDwBjrob1wYaQ-52">
          <mxGeometry x="-0.2399" y="-3" relative="1" as="geometry">
            <mxPoint as="offset" />
          </mxGeometry>
        </mxCell>
        <mxCell id="xBMxwYsTDwBjrob1wYaQ-34" value="Contact employee" style="ellipse;whiteSpace=wrap;html=1;" vertex="1" parent="1">
          <mxGeometry x="420" y="710" width="140" height="40" as="geometry" />
        </mxCell>
        <mxCell id="xBMxwYsTDwBjrob1wYaQ-74" style="edgeStyle=orthogonalEdgeStyle;rounded=0;orthogonalLoop=1;jettySize=auto;html=1;dashed=1;endArrow=none;startFill=0;" edge="1" parent="1" source="xBMxwYsTDwBjrob1wYaQ-36">
          <mxGeometry relative="1" as="geometry">
            <mxPoint x="720" y="430" as="targetPoint" />
          </mxGeometry>
        </mxCell>
        <mxCell id="xBMxwYsTDwBjrob1wYaQ-77" value="&amp;lt;&amp;lt;include&amp;gt;&amp;gt;" style="edgeLabel;html=1;align=center;verticalAlign=middle;resizable=0;points=[];" vertex="1" connectable="0" parent="xBMxwYsTDwBjrob1wYaQ-74">
          <mxGeometry x="-0.0236" y="1" relative="1" as="geometry">
            <mxPoint as="offset" />
          </mxGeometry>
        </mxCell>
        <mxCell id="xBMxwYsTDwBjrob1wYaQ-36" value="View list of jobs" style="ellipse;whiteSpace=wrap;html=1;" vertex="1" parent="1">
          <mxGeometry x="910" y="410" width="140" height="40" as="geometry" />
        </mxCell>
        <mxCell id="xBMxwYsTDwBjrob1wYaQ-75" style="edgeStyle=orthogonalEdgeStyle;rounded=0;orthogonalLoop=1;jettySize=auto;html=1;dashed=1;endArrow=none;startFill=0;" edge="1" parent="1" source="xBMxwYsTDwBjrob1wYaQ-37">
          <mxGeometry relative="1" as="geometry">
            <mxPoint x="720" y="360" as="targetPoint" />
          </mxGeometry>
        </mxCell>
        <mxCell id="xBMxwYsTDwBjrob1wYaQ-76" value="&amp;lt;&amp;lt;include&amp;gt;&amp;gt;" style="edgeLabel;html=1;align=center;verticalAlign=middle;resizable=0;points=[];" vertex="1" connectable="0" parent="xBMxwYsTDwBjrob1wYaQ-75">
          <mxGeometry x="0.0288" y="1" relative="1" as="geometry">
            <mxPoint as="offset" />
          </mxGeometry>
        </mxCell>
        <mxCell id="xBMxwYsTDwBjrob1wYaQ-37" value="Search for jobs" style="ellipse;whiteSpace=wrap;html=1;" vertex="1" parent="1">
          <mxGeometry x="910" y="340" width="140" height="40" as="geometry" />
        </mxCell>
        <mxCell id="xBMxwYsTDwBjrob1wYaQ-73" style="edgeStyle=orthogonalEdgeStyle;rounded=0;orthogonalLoop=1;jettySize=auto;html=1;endArrow=none;startFill=0;dashed=1;" edge="1" parent="1" source="xBMxwYsTDwBjrob1wYaQ-38">
          <mxGeometry relative="1" as="geometry">
            <mxPoint x="720" y="490" as="targetPoint" />
          </mxGeometry>
        </mxCell>
        <mxCell id="xBMxwYsTDwBjrob1wYaQ-78" value="&amp;lt;&amp;lt;include&amp;gt;&amp;gt;" style="edgeLabel;html=1;align=center;verticalAlign=middle;resizable=0;points=[];" vertex="1" connectable="0" parent="xBMxwYsTDwBjrob1wYaQ-73">
          <mxGeometry x="0.1024" relative="1" as="geometry">
            <mxPoint as="offset" />
          </mxGeometry>
        </mxCell>
        <mxCell id="xBMxwYsTDwBjrob1wYaQ-38" value="Apply for a job" style="ellipse;whiteSpace=wrap;html=1;" vertex="1" parent="1">
          <mxGeometry x="910" y="470" width="140" height="40" as="geometry" />
        </mxCell>
        <mxCell id="xBMxwYsTDwBjrob1wYaQ-68" style="edgeStyle=orthogonalEdgeStyle;rounded=0;orthogonalLoop=1;jettySize=auto;html=1;endArrow=none;startFill=0;dashed=1;" edge="1" parent="1" source="xBMxwYsTDwBjrob1wYaQ-39">
          <mxGeometry relative="1" as="geometry">
            <mxPoint x="720" y="805" as="targetPoint" />
          </mxGeometry>
        </mxCell>
        <mxCell id="xBMxwYsTDwBjrob1wYaQ-83" value="&amp;lt;&amp;lt;include&amp;gt;&amp;gt;" style="edgeLabel;html=1;align=center;verticalAlign=middle;resizable=0;points=[];" vertex="1" connectable="0" parent="xBMxwYsTDwBjrob1wYaQ-68">
          <mxGeometry x="0.0243" y="-1" relative="1" as="geometry">
            <mxPoint as="offset" />
          </mxGeometry>
        </mxCell>
        <mxCell id="xBMxwYsTDwBjrob1wYaQ-39" value="View job recommendations from Resume Analysis" style="ellipse;whiteSpace=wrap;html=1;" vertex="1" parent="1">
          <mxGeometry x="905" y="770" width="160" height="70" as="geometry" />
        </mxCell>
        <mxCell id="xBMxwYsTDwBjrob1wYaQ-71" style="edgeStyle=orthogonalEdgeStyle;rounded=0;orthogonalLoop=1;jettySize=auto;html=1;endArrow=none;startFill=0;dashed=1;" edge="1" parent="1" source="xBMxwYsTDwBjrob1wYaQ-40">
          <mxGeometry relative="1" as="geometry">
            <mxPoint x="720" y="620" as="targetPoint" />
          </mxGeometry>
        </mxCell>
        <mxCell id="xBMxwYsTDwBjrob1wYaQ-80" value="&amp;lt;&amp;lt;include&amp;gt;&amp;gt;" style="edgeLabel;html=1;align=center;verticalAlign=middle;resizable=0;points=[];" vertex="1" connectable="0" parent="xBMxwYsTDwBjrob1wYaQ-71">
          <mxGeometry x="0.0676" y="-3" relative="1" as="geometry">
            <mxPoint as="offset" />
          </mxGeometry>
        </mxCell>
        <mxCell id="xBMxwYsTDwBjrob1wYaQ-40" value="Receive job status notifications" style="ellipse;whiteSpace=wrap;html=1;" vertex="1" parent="1">
          <mxGeometry x="905" y="600" width="140" height="40" as="geometry" />
        </mxCell>
        <mxCell id="xBMxwYsTDwBjrob1wYaQ-70" style="edgeStyle=orthogonalEdgeStyle;rounded=0;orthogonalLoop=1;jettySize=auto;html=1;dashed=1;endArrow=none;startFill=0;" edge="1" parent="1" source="xBMxwYsTDwBjrob1wYaQ-41">
          <mxGeometry relative="1" as="geometry">
            <mxPoint x="720" y="670" as="targetPoint" />
          </mxGeometry>
        </mxCell>
        <mxCell id="xBMxwYsTDwBjrob1wYaQ-81" value="&amp;lt;&amp;lt;include&amp;gt;&amp;gt;" style="edgeLabel;html=1;align=center;verticalAlign=middle;resizable=0;points=[];" vertex="1" connectable="0" parent="xBMxwYsTDwBjrob1wYaQ-70">
          <mxGeometry x="0.1235" y="-2" relative="1" as="geometry">
            <mxPoint as="offset" />
          </mxGeometry>
        </mxCell>
        <mxCell id="xBMxwYsTDwBjrob1wYaQ-41" value="Create &amp;amp; Manage employee profile" style="ellipse;whiteSpace=wrap;html=1;" vertex="1" parent="1">
          <mxGeometry x="910" y="650" width="140" height="40" as="geometry" />
        </mxCell>
        <mxCell id="xBMxwYsTDwBjrob1wYaQ-72" style="edgeStyle=orthogonalEdgeStyle;rounded=0;orthogonalLoop=1;jettySize=auto;html=1;endArrow=none;startFill=0;dashed=1;" edge="1" parent="1" source="xBMxwYsTDwBjrob1wYaQ-42">
          <mxGeometry relative="1" as="geometry">
            <mxPoint x="720" y="550" as="targetPoint" />
          </mxGeometry>
        </mxCell>
        <mxCell id="xBMxwYsTDwBjrob1wYaQ-79" value="&amp;lt;&amp;lt;include&amp;gt;&amp;gt;" style="edgeLabel;html=1;align=center;verticalAlign=middle;resizable=0;points=[];" vertex="1" connectable="0" parent="xBMxwYsTDwBjrob1wYaQ-72">
          <mxGeometry x="0.2299" relative="1" as="geometry">
            <mxPoint x="21" as="offset" />
          </mxGeometry>
        </mxCell>
        <mxCell id="xBMxwYsTDwBjrob1wYaQ-42" value="View list of jobs that the employee applied for" style="ellipse;whiteSpace=wrap;html=1;" vertex="1" parent="1">
          <mxGeometry x="900" y="525" width="150" height="50" as="geometry" />
        </mxCell>
        <mxCell id="xBMxwYsTDwBjrob1wYaQ-50" style="edgeStyle=orthogonalEdgeStyle;rounded=0;orthogonalLoop=1;jettySize=auto;html=1;endArrow=none;startFill=0;dashed=1;" edge="1" parent="1" source="xBMxwYsTDwBjrob1wYaQ-43">
          <mxGeometry relative="1" as="geometry">
            <mxPoint x="720" y="780" as="targetPoint" />
          </mxGeometry>
        </mxCell>
        <mxCell id="xBMxwYsTDwBjrob1wYaQ-51" value="&amp;lt;&amp;lt;include&amp;gt;&amp;gt;" style="edgeLabel;html=1;align=center;verticalAlign=middle;resizable=0;points=[];" vertex="1" connectable="0" parent="xBMxwYsTDwBjrob1wYaQ-50">
          <mxGeometry x="-0.2025" y="-1" relative="1" as="geometry">
            <mxPoint as="offset" />
          </mxGeometry>
        </mxCell>
        <mxCell id="xBMxwYsTDwBjrob1wYaQ-43" value="View employee profile" style="ellipse;whiteSpace=wrap;html=1;" vertex="1" parent="1">
          <mxGeometry x="420" y="760" width="140" height="40" as="geometry" />
        </mxCell>
        <mxCell id="xBMxwYsTDwBjrob1wYaQ-69" style="edgeStyle=orthogonalEdgeStyle;rounded=0;orthogonalLoop=1;jettySize=auto;html=1;dashed=1;endArrow=none;startFill=0;" edge="1" parent="1" source="xBMxwYsTDwBjrob1wYaQ-44">
          <mxGeometry relative="1" as="geometry">
            <mxPoint x="720" y="730" as="targetPoint" />
          </mxGeometry>
        </mxCell>
        <mxCell id="xBMxwYsTDwBjrob1wYaQ-82" value="&amp;lt;&amp;lt;include&amp;gt;&amp;gt;" style="edgeLabel;html=1;align=center;verticalAlign=middle;resizable=0;points=[];" vertex="1" connectable="0" parent="xBMxwYsTDwBjrob1wYaQ-69">
          <mxGeometry x="0.1152" y="-2" relative="1" as="geometry">
            <mxPoint as="offset" />
          </mxGeometry>
        </mxCell>
        <mxCell id="xBMxwYsTDwBjrob1wYaQ-44" value="View company profile" style="ellipse;whiteSpace=wrap;html=1;" vertex="1" parent="1">
          <mxGeometry x="915" y="710" width="140" height="40" as="geometry" />
        </mxCell>
        <mxCell id="xBMxwYsTDwBjrob1wYaQ-91" style="edgeStyle=orthogonalEdgeStyle;rounded=0;orthogonalLoop=1;jettySize=auto;html=1;entryX=0;entryY=0.675;entryDx=0;entryDy=0;entryPerimeter=0;curved=1;" edge="1" parent="1" source="xBMxwYsTDwBjrob1wYaQ-4" target="xBMxwYsTDwBjrob1wYaQ-21">
          <mxGeometry relative="1" as="geometry">
            <Array as="points">
              <mxPoint x="350" y="410" />
              <mxPoint x="350" y="577" />
            </Array>
          </mxGeometry>
        </mxCell>
      </root>
    </mxGraphModel>
  </diagram>
</mxfile>
